<svg width="208" height="43" viewBox="0 0 208 43" fill="none" xmlns="http://www.w3.org/2000/svg">
<path fill-rule="evenodd" clip-rule="evenodd" d="M0.078125 0.13623H24.0136L25.3192 4.09768H42.1076L44.8223 12.3346H39.7465V17.1702L41.0069 17.4369L39.0315 23.7874L37.0681 17.4369L38.3164 17.1702V12.3952H27.2514V17.1702L28.5119 17.4369L26.5364 23.7874L24.5609 17.4369L25.8214 17.1702V12.3952H14.7564V17.1702L16.4894 17.4369L21.1433 29.4714H29.2633L31.4448 22.9148L33.6505 29.4714H41.7583L46.4122 17.4369L46.4994 17.4234L53.5771 38.8984H36.7887L38.0943 42.8599H14.1588L0.078125 0.13623Z" fill="white"/>
<path d="M73.8373 15.7461L70.2195 27.3523H66.1793L62.7452 15.7461H66.0324C66.2283 16.3582 66.4364 17.0561 66.6568 17.8396C66.8772 18.6231 67.0914 19.425 67.2996 20.2453C67.5199 21.0533 67.7097 21.8124 67.8689 22.5225C68.0403 23.2203 68.1688 23.8019 68.2545 24.2671H68.328C68.4137 23.8019 68.5361 23.2203 68.6952 22.5225C68.8666 21.8124 69.0564 21.0533 69.2645 20.2453C69.4849 19.4373 69.7053 18.6415 69.9257 17.858C70.146 17.0744 70.3542 16.3705 70.55 15.7461H73.8373ZM78.2988 15.085C78.3355 15.5257 78.3539 15.893 78.3539 16.1868C78.3539 16.3582 78.3477 16.5357 78.3355 16.7194C78.3355 16.8908 78.3233 17.0867 78.2988 17.307C78.0417 17.356 77.7907 17.3927 77.5458 17.4172C77.301 17.4417 77.0561 17.4539 76.8113 17.4539C76.5786 17.4539 76.3399 17.4417 76.0951 17.4172C75.8624 17.3927 75.6237 17.356 75.3788 17.307C75.3544 17.0989 75.336 16.9091 75.3238 16.7377C75.3115 16.5541 75.3054 16.3766 75.3054 16.2052C75.3054 16.046 75.3115 15.8746 75.3238 15.691C75.336 15.5073 75.3544 15.3053 75.3788 15.085C75.6237 15.0237 75.8686 14.987 76.1134 14.9748C76.3705 14.9503 76.6215 14.938 76.8664 14.938C77.099 14.938 77.3316 14.9503 77.5642 14.9748C77.8091 14.987 78.0539 15.0237 78.2988 15.085ZM78.2988 27.3523H75.3605V18.4089H78.2988V27.3523ZM79.928 24.818C80.883 25.0874 81.942 25.222 83.105 25.222C83.6682 25.222 84.0906 25.2037 84.3722 25.1669C84.6538 25.1302 84.8435 25.069 84.9415 24.9833C85.0394 24.8976 85.0884 24.7813 85.0884 24.6344C85.0884 24.4263 85.0088 24.2977 84.8497 24.2487C84.7027 24.1998 84.4028 24.1324 83.9498 24.0467L82.499 23.7713C81.5686 23.5876 80.8952 23.2999 80.479 22.9081C80.0749 22.5041 79.8729 21.9042 79.8729 21.1084C79.8729 20.0311 80.1912 19.2965 80.8279 18.9047C81.4767 18.513 82.5051 18.3171 83.9131 18.3171C84.7578 18.3171 85.4985 18.366 86.1352 18.464C86.784 18.5497 87.3227 18.6599 87.7512 18.7945L87.7145 21.0166L87.6594 21.0717C86.6677 20.7534 85.5842 20.5942 84.4089 20.5942C83.8335 20.5942 83.4295 20.6371 83.1969 20.7228C82.9765 20.7962 82.8663 20.9493 82.8663 21.1819C82.8663 21.3043 82.8969 21.4023 82.9581 21.4757C83.0316 21.5492 83.1907 21.6226 83.4356 21.6961C83.6805 21.7573 84.0661 21.8369 84.5926 21.9348L85.9331 22.1919C86.68 22.3511 87.2309 22.6143 87.5859 22.9816C87.941 23.3489 88.1185 23.9304 88.1185 24.7262C88.1185 25.424 87.9899 25.9811 87.7328 26.3974C87.4757 26.8014 87.0411 27.0891 86.429 27.2605C85.8291 27.4319 84.9966 27.5176 83.9314 27.5176C83.1234 27.5176 82.3766 27.4808 81.691 27.4074C81.0176 27.3217 80.4116 27.2237 79.8729 27.1136V24.8548L79.928 24.818ZM92.6139 27.5176C91.4875 27.5176 90.6856 27.2176 90.2082 26.6177C89.7307 26.0178 89.4919 25.1608 89.4919 24.0467V18.4089H92.4302L92.4486 23.3305C92.4486 23.8814 92.5465 24.2732 92.7424 24.5058C92.9383 24.7262 93.3362 24.8364 93.9361 24.8364C94.5115 24.8364 94.8972 24.7384 95.0931 24.5426C95.3012 24.3344 95.4114 23.9855 95.4236 23.4958V18.4089H98.3619V27.3523H95.5705L95.4236 26.3423H95.3685C95.2094 26.6973 94.8849 26.985 94.3952 27.2054C93.9055 27.4135 93.3117 27.5176 92.6139 27.5176ZM103.959 18.3171C105.134 18.3171 106.083 18.4395 106.805 18.6844C107.528 18.9292 108.054 19.3822 108.385 20.0433C108.727 20.6922 108.899 21.6349 108.899 22.8714V27.3523H106.236L106.144 26.5075H106.089C105.856 26.8136 105.495 27.0585 105.006 27.2421C104.516 27.4258 103.879 27.5176 103.096 27.5176C100.978 27.5176 99.9187 26.5259 99.9187 24.5426C99.9187 23.6978 100.194 23.0367 100.745 22.5592C101.308 22.0695 102.19 21.8246 103.39 21.8246H106.107C106.022 21.3104 105.801 20.9676 105.446 20.7962C105.091 20.6126 104.485 20.5208 103.628 20.5208C103.09 20.5208 102.557 20.5636 102.031 20.6493C101.516 20.7228 101.063 20.8085 100.672 20.9064L100.617 20.8697L100.635 18.7394C100.88 18.666 101.192 18.5987 101.571 18.5374C101.951 18.464 102.349 18.4089 102.765 18.3722C103.194 18.3354 103.592 18.3171 103.959 18.3171ZM103.849 25.3506C104.608 25.3506 105.177 25.2588 105.557 25.0751C105.936 24.8792 106.132 24.5732 106.144 24.1569V23.6978H104.069C103.53 23.6978 103.151 23.7774 102.93 23.9365C102.722 24.0835 102.618 24.2855 102.618 24.5426C102.618 24.8486 102.728 25.0629 102.949 25.1853C103.169 25.2955 103.469 25.3506 103.849 25.3506ZM113.758 27.3523H110.82V14.9931H113.758V27.3523ZM118.905 27.3523H115.967V14.9931H118.905V27.3523ZM122.142 30.7313L123.556 27.3707L120.012 18.4456V18.4089H123.299C123.642 19.3761 123.96 20.3494 124.254 21.3288C124.56 22.3082 124.805 23.3122 124.989 24.3406H125.025C125.209 23.3244 125.442 22.3266 125.723 21.3472C126.017 20.3677 126.347 19.3883 126.715 18.4089H129.873V18.464L125.154 30.7681H122.142V30.7313ZM148.401 15.7277H151.395L148.934 27.3523H145.353C144.973 26.0423 144.643 24.7629 144.361 23.5142C144.092 22.2654 143.835 20.9309 143.59 19.5107H143.553C143.272 20.9309 142.99 22.2654 142.708 23.5142C142.439 24.7629 142.133 26.0423 141.79 27.3523H138.209L135.748 15.7277H138.742C138.925 16.5847 139.091 17.4233 139.238 18.2436C139.385 19.0639 139.525 19.9025 139.66 20.7595C139.807 21.6043 139.954 22.5225 140.101 23.5142H140.137C140.321 22.5225 140.499 21.6043 140.67 20.7595C140.841 19.9025 141.019 19.0639 141.203 18.2436C141.386 17.4233 141.582 16.5847 141.79 15.7277H145.353C145.635 17.0254 145.91 18.3232 146.179 19.6209C146.461 20.9187 146.736 22.2164 147.006 23.5142H147.042C147.275 22.2164 147.502 20.9187 147.722 19.6209C147.942 18.3232 148.169 17.0254 148.401 15.7277ZM160.735 27.0585C160.392 27.1809 159.915 27.2911 159.302 27.389C158.703 27.4747 157.986 27.5176 157.154 27.5176C156.101 27.5176 155.201 27.3829 154.454 27.1136C153.72 26.832 153.163 26.3606 152.783 25.6995C152.404 25.0262 152.214 24.0957 152.214 22.9081C152.214 21.2921 152.581 20.1229 153.316 19.4006C154.063 18.6782 155.213 18.3171 156.768 18.3171C157.882 18.3171 158.758 18.4762 159.394 18.7945C160.043 19.1129 160.502 19.5658 160.772 20.1535C161.053 20.7289 161.194 21.4145 161.194 22.2103C161.194 22.4429 161.182 22.6939 161.157 22.9632C161.145 23.2326 161.114 23.4958 161.065 23.7529L160.992 23.8264H154.95C155.036 24.365 155.287 24.7201 155.703 24.8915C156.132 25.0629 156.823 25.1486 157.778 25.1486C158.415 25.1486 158.941 25.1363 159.358 25.1119C159.786 25.0751 160.221 25.0262 160.661 24.9649L160.735 25.02V27.0585ZM158.641 21.8981C158.641 21.6043 158.592 21.3533 158.494 21.1452C158.409 20.9248 158.231 20.7595 157.962 20.6493C157.693 20.5269 157.295 20.4657 156.768 20.4657C155.997 20.4657 155.489 20.6004 155.244 20.8697C155.011 21.1268 154.895 21.4696 154.895 21.8981H158.641ZM166.154 18.3171C167.329 18.3171 168.278 18.4395 169 18.6844C169.722 18.9292 170.249 19.3822 170.579 20.0433C170.922 20.6922 171.094 21.6349 171.094 22.8714V27.3523H168.431L168.339 26.5075H168.284C168.051 26.8136 167.69 27.0585 167.2 27.2421C166.711 27.4258 166.074 27.5176 165.29 27.5176C163.172 27.5176 162.113 26.5259 162.113 24.5426C162.113 23.6978 162.389 23.0367 162.94 22.5592C163.503 22.0695 164.384 21.8246 165.584 21.8246H168.302C168.216 21.3104 167.996 20.9676 167.641 20.7962C167.286 20.6126 166.68 20.5208 165.823 20.5208C165.284 20.5208 164.752 20.5636 164.225 20.6493C163.711 20.7228 163.258 20.8085 162.866 20.9064L162.811 20.8697L162.83 18.7394C163.074 18.666 163.387 18.5987 163.766 18.5374C164.146 18.464 164.544 18.4089 164.96 18.3722C165.388 18.3354 165.786 18.3171 166.154 18.3171ZM166.043 25.3506C166.802 25.3506 167.372 25.2588 167.751 25.0751C168.131 24.8792 168.327 24.5732 168.339 24.1569V23.6978H166.264C165.725 23.6978 165.345 23.7774 165.125 23.9365C164.917 24.0835 164.813 24.2855 164.813 24.5426C164.813 24.8486 164.923 25.0629 165.143 25.1853C165.364 25.2955 165.664 25.3506 166.043 25.3506ZM173.198 24.6711V20.8146H172.096V18.4273H173.473L174.024 16.2419H176.136V18.4273H178.138V20.8146H176.136V24.0284C176.136 24.3712 176.179 24.6099 176.265 24.7446C176.35 24.867 176.546 24.9282 176.852 24.9282C177.048 24.9282 177.256 24.9221 177.477 24.9098C177.697 24.8854 177.918 24.8609 178.138 24.8364L178.193 24.8731V27.2605C177.605 27.4319 176.828 27.5176 175.861 27.5176C174.894 27.5176 174.208 27.2972 173.804 26.8565C173.4 26.4157 173.198 25.6873 173.198 24.6711ZM182.785 27.3523H179.847V15.0115H182.785V20.0433H182.84C183.012 19.4924 183.324 19.07 183.777 18.7762C184.242 18.4701 184.848 18.3171 185.595 18.3171C186.305 18.3171 186.887 18.4334 187.34 18.666C187.805 18.8986 188.148 19.3087 188.368 19.8964C188.601 20.4718 188.717 21.286 188.717 22.3388V27.3523H185.779L185.76 22.9081C185.76 22.2225 185.656 21.7328 185.448 21.439C185.24 21.1452 184.848 20.9983 184.273 20.9983C183.759 20.9983 183.385 21.1329 183.153 21.4023C182.92 21.6716 182.798 22.1246 182.785 22.7612V27.3523ZM198.593 27.0585C198.251 27.1809 197.773 27.2911 197.161 27.389C196.561 27.4747 195.845 27.5176 195.012 27.5176C193.959 27.5176 193.06 27.3829 192.313 27.1136C191.578 26.832 191.021 26.3606 190.642 25.6995C190.262 25.0262 190.072 24.0957 190.072 22.9081C190.072 21.2921 190.44 20.1229 191.174 19.4006C191.921 18.6782 193.072 18.3171 194.627 18.3171C195.741 18.3171 196.616 18.4762 197.253 18.7945C197.902 19.1129 198.361 19.5658 198.63 20.1535C198.912 20.7289 199.052 21.4145 199.052 22.2103C199.052 22.4429 199.04 22.6939 199.016 22.9632C199.003 23.2326 198.973 23.4958 198.924 23.7529L198.85 23.8264H192.809C192.894 24.365 193.145 24.7201 193.562 24.8915C193.99 25.0629 194.682 25.1486 195.637 25.1486C196.273 25.1486 196.8 25.1363 197.216 25.1119C197.644 25.0751 198.079 25.0262 198.52 24.9649L198.593 25.02V27.0585ZM196.5 21.8981C196.5 21.6043 196.451 21.3533 196.353 21.1452C196.267 20.9248 196.09 20.7595 195.82 20.6493C195.551 20.5269 195.153 20.4657 194.627 20.4657C193.855 20.4657 193.347 20.6004 193.102 20.8697C192.87 21.1268 192.753 21.4696 192.753 21.8981H196.5ZM203.553 27.3523H200.615V18.4089H203.002L203.241 20.2453H203.296C203.406 19.5597 203.669 19.07 204.085 18.7762C204.502 18.4701 205.12 18.3171 205.94 18.3171C206.271 18.3171 206.571 18.3354 206.84 18.3722C207.109 18.3966 207.336 18.4211 207.52 18.4456V21.3104L207.483 21.3472C207.287 21.2982 207.06 21.2554 206.803 21.2186C206.558 21.1819 206.277 21.1635 205.959 21.1635C205.506 21.1635 205.095 21.237 204.728 21.3839C204.373 21.5308 204.092 21.8185 203.883 22.247C203.688 22.6633 203.59 23.2877 203.59 24.1202L203.553 27.3523Z" fill="white"/>
</svg>
