<svg width="21" height="22" viewBox="0 0 21 22" fill="none" xmlns="http://www.w3.org/2000/svg">
<path d="M5.49242 16.1818L6.81827 20.3007L10.9372 18.9749" stroke="white" stroke-width="1.81132" stroke-linecap="round" stroke-linejoin="round"/>
<path d="M2.91212 1.10273C1.88396 2.4417 1.64072 4.33032 2.17852 5.88456C2.64837 7.46069 3.94765 8.85278 5.56383 9.34055C7.18001 9.82832 8.4793 11.2204 8.94914 12.7965C9.48695 14.3508 8.91381 16.2172 8.21554 17.5784L6.81901 20.3008" stroke="white" stroke-width="1.81132" stroke-linecap="round" stroke-linejoin="round"/>
<path d="M14.1448 16.1818L15.4706 20.3007L19.5895 18.9749" stroke="white" stroke-width="1.81132" stroke-linecap="round" stroke-linejoin="round"/>
<path d="M11.5645 1.10273C10.5363 2.4417 10.2931 4.33032 10.8309 5.88456C11.3007 7.46069 12.6 8.85278 14.2162 9.34055C15.8324 9.82832 17.1316 11.2204 17.6015 12.7965C18.1393 14.3508 17.5662 16.2172 16.8679 17.5784L15.4714 20.3008" stroke="white" stroke-width="1.81132" stroke-linecap="round" stroke-linejoin="round"/>
</svg>
