<svg width="27" height="27" viewBox="0 0 27 27" fill="none" xmlns="http://www.w3.org/2000/svg">
<path d="M22.3253 15.5092C22.6089 15.5092 22.8808 15.6218 23.0814 15.8223C23.2819 16.0229 23.3945 16.2948 23.3945 16.5784C23.3945 16.862 23.2819 17.1339 23.0814 17.3345C22.8808 17.535 22.6089 17.6476 22.3253 17.6476L13.7715 17.6476C13.2043 17.6476 12.6604 17.8729 12.2594 18.274C11.8583 18.675 11.633 19.2189 11.633 19.7861C11.633 20.3532 11.8583 20.8972 12.2594 21.2982C12.6604 21.6992 13.2043 21.9245 13.7715 21.9245C14.3596 21.9245 14.8942 21.6893 15.2791 21.2937C15.3764 21.1898 15.494 21.1071 15.6246 21.0505C15.7551 20.9939 15.8959 20.9647 16.0382 20.9647C16.1806 20.9647 16.3214 20.9939 16.4519 21.0505C16.5825 21.1071 16.7001 21.1898 16.7974 21.2937C17.2144 21.7107 17.2144 22.395 16.7974 22.812C16.0169 23.5818 14.9476 24.063 13.7715 24.063C12.6372 24.063 11.5493 23.6124 10.7473 22.8103C9.94518 22.0082 9.49458 20.9204 9.49458 19.7861C9.49458 18.6518 9.94518 17.5639 10.7473 16.7618C11.5493 15.9598 12.6372 15.5092 13.7715 15.5092L22.3253 15.5092ZM6.28689 13.3707C6.00332 13.3707 5.73136 13.4834 5.53084 13.6839C5.33032 13.8844 5.21767 14.1564 5.21767 14.4399C5.21767 14.7235 5.33032 14.9955 5.53084 15.196C5.73136 15.3965 6.00332 15.5092 6.2869 15.5092C6.58628 15.5092 6.85358 15.3916 7.04605 15.1991C7.14496 15.1 7.26246 15.0213 7.39181 14.9677C7.52116 14.914 7.65982 14.8864 7.79985 14.8864C7.93989 14.8864 8.07855 14.914 8.2079 14.9677C8.33724 15.0213 8.45474 15.1 8.55366 15.1991C8.95996 15.6161 8.95996 16.2897 8.55366 16.7067C7.97628 17.2841 7.17435 17.6476 6.2869 17.6476C5.43617 17.6476 4.62028 17.3097 4.01872 16.7081C3.41716 16.1066 3.07921 15.2907 3.07921 14.4399C3.07921 13.5892 3.41716 12.7733 4.01872 12.1718C4.62028 11.5702 5.43616 11.2323 6.28689 11.2323L21.2561 11.2323C21.5397 11.2323 21.8116 11.3449 22.0121 11.5454C22.2127 11.7459 22.3253 12.0179 22.3253 12.3015C22.3253 12.5851 22.2127 12.857 22.0121 13.0575C21.8116 13.2581 21.5397 13.3707 21.2561 13.3707L6.28689 13.3707ZM7.35612 6.95535L22.3253 6.95535C22.6089 6.95535 22.8808 7.068 23.0814 7.26852C23.2819 7.46904 23.3945 7.741 23.3945 8.02458C23.3945 8.30815 23.2819 8.58012 23.0814 8.78064C22.8808 8.98116 22.6089 9.09381 22.3253 9.09381L7.35612 9.09381C6.50539 9.09381 5.6895 8.75586 5.08795 8.1543C4.48639 7.55274 4.14844 6.73686 4.14844 5.88613C4.14844 5.0354 4.48639 4.21951 5.08795 3.61795C5.6895 3.01639 6.50539 2.67844 7.35612 2.67844C8.24358 2.67844 9.0455 3.04198 9.62288 3.61936C10.0292 4.03636 10.0292 4.70998 9.62288 5.12697C9.52396 5.2261 9.40647 5.30473 9.27712 5.35839C9.14777 5.41205 9.00911 5.43966 8.86908 5.43966C8.72904 5.43966 8.59038 5.41205 8.46103 5.35839C8.33169 5.30473 8.21419 5.2261 8.11527 5.12697C7.92281 4.93451 7.6555 4.8169 7.35612 4.8169C7.07254 4.8169 6.80058 4.92955 6.60006 5.13007C6.39954 5.33059 6.28689 5.60255 6.28689 5.88613C6.28689 6.1697 6.39954 6.44166 6.60006 6.64218C6.80058 6.8427 7.07254 6.95535 7.35612 6.95535Z" fill="white"/>
</svg>
